<svg xmlns="http://www.w3.org/2000/svg" xmlns:xlink="http://www.w3.org/1999/xlink" width="80" height="80" viewBox="0 0 80 80" xml:space="preserve"><defs><ellipse id="a" cx="40" cy="40.652" rx="37.147" ry="36"/></defs><clipPath id="b"><use xlink:href="#a" overflow="visible"/></clipPath><linearGradient id="c" gradientUnits="userSpaceOnUse" x1="40.001" y1="4.652" x2="40.001" y2="76.652"><stop offset="0" style="stop-color:#29abe2"/><stop offset="1" style="stop-color:#0071bc"/></linearGradient><ellipse clip-path="url(#b)" fill="url(#c)" cx="40" cy="40.652" rx="37.147" ry="36"/><path opacity=".25" clip-path="url(#b)" fill="#FFF" d="M63.281 28.646h-1.712c-4.146 0-4.146-3.641 0-3.641h10.102c4.146 0 4.146-3.642 0-3.642H47.68v-.019c-3.67-.196-3.67-3.405 0-3.603v-.019h10.215c4.145 0 4.145-3.64 0-3.64v-.018c-3.75-.165-3.75-3.443 0-3.607v-.017h9.885c4.146 0 4.146-3.641 0-3.641H40.94c-4.146 0-4.146 3.641 0 3.641h7.084c4.146 0 4.146 3.642 0 3.642H23.83c-4.146 0-4.146 3.64 0 3.64h13.289v.007c3.984.069 3.984 3.558 0 3.627v.006h-6.888c-4.146 0-4.146 3.642 0 3.642h20.547v.013c3.826.135 3.826 3.48 0 3.614v.014H20.072c-4.146 0-4.146 3.64 0 3.64h43.209c4.146.001 4.146-3.639 0-3.639"/><path clip-path="url(#b)" fill="#FFF" d="M60.85 42.275h-2.426c-5.875 0-5.875-5.159 0-5.159H72.74c5.876 0 5.876-5.161 0-5.161H38.738v-.026c-5.202-.278-5.202-4.826 0-5.105v-.027h14.477c5.875 0 5.875-5.158 0-5.158v-.024c-5.313-.233-5.313-4.88 0-5.112v-.024h14.01c5.875 0 5.875-5.159 0-5.159H29.186c-5.875 0-5.875 5.159 0 5.159h10.04c5.875 0 5.875 5.161 0 5.161H4.937c-5.875 0-5.875 5.158 0 5.158h18.834v.01c5.646.099 5.646 5.042 0 5.141v.009h-9.762c-5.875 0-5.875 5.161 0 5.161h29.122v.018c5.421.191 5.421 4.933 0 5.123v.019H-.389c-5.876 0-5.876 5.159 0 5.159H60.85c5.876-.003 5.876-5.163 0-5.163"/><path fill="#363D4A" stroke="#1D2229" stroke-width=".25" d="M14.719 32.487h49.102v30.781H14.719zm47.639-12.444-47.6 11.678-2.028-7.763 47.599-11.679z"/><path fill="#FFF" d="m46.347 51.305-14.154 7.852V43.452z"/><path fill="#FFF" stroke="#1D2229" stroke-width=".25" d="M63.988 31.836H16.851l45.498-11.162.01-.002a.92.92 0 0 0 .506-.367c.125-.183.171-.393.125-.569l-2.028-7.765c-.069-.263-.325-.393-.622-.321l-47.6 11.678a.87.87 0 0 0-.516.369.72.72 0 0 0-.125.569l2.029 7.765a.46.46 0 0 0 .108.19.77.77 0 0 0-.165.434v30.782a.46.46 0 0 0 .48.481h49.101a1 1 0 0 0 .168-.022.9.9 0 0 0 .395-.232.82.82 0 0 0 .254-.563V32.317a.46.46 0 0 0-.481-.481zm-10.156 1.302-7.076 6.717H34.475l7.16-6.717zm-13.918 0-7.077 6.717H21.202l7.123-6.717zm-13.264 0-7.078 6.717h-4.205v-6.717zm26.24-11.401-11.349 2.785-8.668-4.877 11.52-2.827zm-13.365 3.28L28.831 27.64l-8.252-4.979 10.379-2.547zm22.01-5.401-6.579 1.614-8.995-4.798 13.854-3.398zm-47.982 4.769 5.017-1.23 8.276 4.973-11.573 2.842zm49.62 38.233-47.806-.001V41.156h47.806zm0-22.762-14.783-.002 7.128-6.717h7.654v6.719z"/></svg>